<svg width="18" height="13" viewBox="0 0 18 13" fill="none" xmlns="http://www.w3.org/2000/svg">
<path d="M15.795 0.166504C16.645 0.166504 17.3333 0.855671 17.3333 1.70484V3.49984C17.3333 5.05107 16.8525 6.56416 15.9571 7.83087C15.0616 9.09758 13.7956 10.0556 12.3333 10.5732V11.4165C12.3333 11.748 12.2016 12.066 11.9672 12.3004C11.7328 12.5348 11.4148 12.6665 11.0833 12.6665H6.91663C6.58511 12.6665 6.26716 12.5348 6.03274 12.3004C5.79832 12.066 5.66663 11.748 5.66663 11.4165V10.5732C4.20427 10.0556 2.93827 9.09758 2.04286 7.83087C1.14745 6.56416 0.666645 5.05107 0.666626 3.49984V1.70484C0.666626 0.854837 1.35579 0.166504 2.20496 0.166504H15.795Z" fill="white"/>
</svg>
