<svg width="13" height="21" viewBox="0 0 13 21" fill="none" xmlns="http://www.w3.org/2000/svg">
<path d="M8.6012 4.104C8.4472 4.258 8.3702 4.731 8.3702 5.523V5.82H11.8682V9.054H8.3702V21H2.7272V9.054H0.252199V6.117L2.7272 5.82V5.325C2.7272 4.357 2.8592 3.433 3.1232 2.553C3.3872 1.673 3.6292 1.145 3.8492 0.968998C4.5312 0.396999 5.9832 0.110999 8.2052 0.110999C9.4152 0.110999 10.7682 0.199 12.2642 0.375C12.2642 0.638999 12.2202 1.167 12.1322 1.959C12.0662 2.751 12.0002 3.422 11.9342 3.972L10.5152 3.939C9.3492 3.939 8.7112 3.994 8.6012 4.104Z" fill="white"/>
</svg>
