<svg width="15" height="15" viewBox="0 0 15 15" fill="none" xmlns="http://www.w3.org/2000/svg">
<path d="M13.75 0H1.25C0.918479 0 0.600537 0.131696 0.366116 0.366116C0.131696 0.600537 0 0.918479 0 1.25V13.75C0 14.0815 0.131696 14.3995 0.366116 14.6339C0.600537 14.8683 0.918479 15 1.25 15H9.7414C9.90562 15.0005 10.0683 14.9684 10.22 14.9055C10.3717 14.8426 10.5093 14.7502 10.625 14.6336L14.6336 10.625C14.7502 10.5093 14.8426 10.3717 14.9055 10.22C14.9684 10.0683 15.0005 9.90562 15 9.7414V1.25C15 0.918479 14.8683 0.600537 14.6339 0.366116C14.3995 0.131696 14.0815 0 13.75 0ZM10 13.4914V10H13.4914L10 13.4914Z" fill="white"/>
</svg>
