<svg width="10" height="16" viewBox="0 0 10 16" fill="none" xmlns="http://www.w3.org/2000/svg">
<path fill-rule="evenodd" clip-rule="evenodd" d="M0.940023 9.0599C0.659122 8.77865 0.501343 8.3974 0.501343 7.9999C0.501343 7.6024 0.659122 7.22115 0.940023 6.9399L6.59602 1.2819C6.87742 1.00064 7.25902 0.84268 7.65688 0.842773C7.85388 0.84282 8.04894 0.881668 8.23092 0.957099C8.41291 1.03253 8.57826 1.14307 8.71752 1.2824C8.85679 1.42173 8.96725 1.58713 9.04259 1.76915C9.11794 1.95117 9.1567 2.14625 9.15665 2.34325C9.1566 2.54025 9.11776 2.73531 9.04232 2.9173C8.96689 3.09929 8.85636 3.26463 8.71702 3.4039L4.12102 7.9999L8.71702 12.5959C8.86035 12.7342 8.9747 12.8997 9.0534 13.0826C9.1321 13.2656 9.17357 13.4624 9.17539 13.6616C9.17722 13.8607 9.13936 14.0583 9.06402 14.2427C8.98869 14.427 8.87739 14.5946 8.73662 14.7355C8.59585 14.8764 8.42842 14.9878 8.24411 15.0633C8.0598 15.1389 7.8623 15.1769 7.66313 15.1753C7.46397 15.1736 7.26712 15.1323 7.08407 15.0538C6.90103 14.9753 6.73546 14.8611 6.59702 14.7179L0.938023 9.0599H0.940023Z" fill="black"/>
</svg>
