<svg width="24" height="19" viewBox="0 0 24 19" fill="none" xmlns="http://www.w3.org/2000/svg">
<path d="M2.58329 18.9163C1.95309 18.9163 1.4134 18.6918 0.964232 18.2426C0.515065 17.7934 0.290864 17.2541 0.291628 16.6247V2.87468C0.291628 2.24447 0.516211 1.70478 0.965378 1.25561C1.41454 0.806447 1.95385 0.582246 2.58329 0.58301H20.9166C21.5468 0.58301 22.0865 0.807593 22.5357 1.25676C22.9849 1.70593 23.2091 2.24523 23.2083 2.87468V16.6247C23.2083 17.2549 22.9837 17.7946 22.5345 18.2437C22.0854 18.6929 21.5461 18.9171 20.9166 18.9163H2.58329ZM11.75 10.8955L2.58329 5.16634V16.6247H20.9166V5.16634L11.75 10.8955ZM11.75 8.60384L20.9166 2.87468H2.58329L11.75 8.60384ZM2.58329 5.16634V2.87468V16.6247V5.16634Z" fill="white"/>
</svg>
