<svg width="18" height="19" viewBox="0 0 18 19" fill="none" xmlns="http://www.w3.org/2000/svg">
<path d="M9 10.9502V0.950195H18V7.9502H12L9 10.9502ZM16.95 19.0002C14.8 19.0002 12.704 18.5252 10.662 17.5752C8.62 16.6252 6.81167 15.3585 5.237 13.7752C3.66233 12.1919 2.39567 10.3792 1.437 8.3372C0.478334 6.2952 -0.000665972 4.19953 6.94927e-07 2.0502V1.5252C6.94927e-07 1.34186 0.0166673 1.16686 0.0500006 1.0002H5.9L6.825 6.0252L3.975 8.9002C4.675 10.1002 5.55433 11.2252 6.613 12.2752C7.67167 13.3252 8.834 14.2335 10.1 15.0002L13 12.1002L18 13.1002V18.9502C17.8333 18.9669 17.6583 18.9795 17.475 18.9882C17.2917 18.9969 17.1167 19.0009 16.95 19.0002Z" fill="white"/>
</svg>
